# xmcd CD database file
#
# Track frame offsets:
#	150
#	12134
#	25096
#	37855
#	48806
#	61496
#	73172
#	83871
#	95826
#	105920
#
# Disc length: 1630 seconds
#
# Revision: 0
# Processed by: cddbd v1.5.1PL0 Copyright (c) Steve Scherf et al.
# Submitted via: CDex 1.51
#
DISCID=73065c0a
DTITLE=Bob Wills and The Texas Playboys - Roly Poly
DYEAR=1997
DGENRE=Country
TTITLE0=Roly Poly
TTITLE1=Faded Love
TTITLE2=Ida Red
TTITLE3=I'm Gonna Be Boss
TTITLE4=All Night Long
TTITLE5=C Jam Blues
TTITLE6=Take Me Back to Tulsa
TTITLE7=Cotton Eyed Joe
TTITLE8=Honeysuckle Rose
TTITLE9=Oh Mona
EXTD=YEAR: 1997
EXTT0=
EXTT1=
EXTT2=
EXTT3=
EXTT4=
EXTT5=
EXTT6=
EXTT7=
EXTT8=
EXTT9=
PLAYORDER=
